<?xml version="1.0" encoding="utf-8"?>
<!-- Generator: Adobe Illustrator 19.0.0, SVG Export Plug-In . SVG Version: 6.00 Build 0)  -->
<svg version="1.1" id="Capa_1" xmlns="http://www.w3.org/2000/svg" xmlns:xlink="http://www.w3.org/1999/xlink" x="0px" y="0px"
	 viewBox="-49 141 512 512" style="enable-background:new -49 141 512 512;" xml:space="preserve">
<style type="text/css">
	.st0{fill:#020202;}
</style>
<g>
	<path class="st0" d="M104.7,478.1h282.1c32,0,58.1-26.1,58.1-58.1V301.3c0-0.1,0-0.3,0-0.4c0-0.3,0-0.5,0-0.8c0-0.2,0-0.4-0.1-0.6
		c0-0.2-0.1-0.5-0.1-0.7s-0.1-0.4-0.1-0.6c-0.1-0.2-0.1-0.4-0.2-0.7c-0.1-0.2-0.1-0.4-0.2-0.6c-0.1-0.2-0.1-0.4-0.2-0.6
		c-0.1-0.2-0.2-0.4-0.3-0.7c-0.1-0.2-0.2-0.4-0.3-0.5c-0.1-0.2-0.2-0.4-0.3-0.6c-0.1-0.2-0.2-0.3-0.3-0.5s-0.3-0.4-0.4-0.6
		c-0.1-0.2-0.2-0.3-0.4-0.5c-0.1-0.2-0.3-0.3-0.4-0.5s-0.3-0.3-0.4-0.5s-0.3-0.3-0.4-0.4c-0.2-0.2-0.3-0.3-0.5-0.5
		c-0.2-0.1-0.3-0.3-0.5-0.4c-0.2-0.1-0.4-0.3-0.6-0.4c-0.2-0.1-0.3-0.2-0.5-0.3c-0.2-0.1-0.4-0.2-0.6-0.4c-0.2-0.1-0.4-0.2-0.6-0.3
		c-0.2-0.1-0.4-0.2-0.6-0.3c-0.2-0.1-0.4-0.2-0.6-0.3c-0.2-0.1-0.4-0.1-0.6-0.2c-0.2-0.1-0.5-0.2-0.7-0.2c-0.2,0-0.4-0.1-0.5-0.1
		c-0.3-0.1-0.5-0.1-0.8-0.1c-0.1,0-0.2-0.1-0.4-0.1L75.1,237.9V188c0-0.5,0-1.1-0.1-1.5c0-0.1,0-0.2-0.1-0.4c0-0.3-0.1-0.6-0.1-0.9
		c-0.1-0.3-0.1-0.5-0.2-0.8c0-0.2-0.1-0.3-0.1-0.5c-0.1-0.3-0.2-0.6-0.3-0.9c0-0.1-0.1-0.3-0.1-0.4c-0.1-0.3-0.2-0.5-0.4-0.8
		c-0.1-0.1-0.1-0.3-0.2-0.4c-0.1-0.2-0.2-0.4-0.4-0.6c-0.1-0.2-0.2-0.3-0.3-0.5c-0.1-0.2-0.2-0.3-0.3-0.5c-0.1-0.2-0.3-0.4-0.4-0.6
		c-0.1-0.1-0.2-0.2-0.3-0.3c-0.2-0.2-0.4-0.4-0.6-0.6c-0.1-0.1-0.2-0.2-0.3-0.3c-0.2-0.2-0.4-0.4-0.7-0.6c-0.1-0.1-0.3-0.2-0.4-0.3
		c-0.2-0.2-0.4-0.3-0.6-0.5c-0.3-0.2-0.6-0.4-0.8-0.5c-0.1-0.1-0.2-0.1-0.3-0.2c-0.4-0.2-0.9-0.4-1.4-0.6l-77.6-32.6
		c-7.3-3.1-15.6,0.3-18.6,7.6s0.3,15.6,7.6,18.6l68.8,29v64.4V272v78.3v70v88.4c0,29.5,22.1,53.9,50.6,57.6
		c-5.2,8.6-8.2,18.7-8.2,29.5c0,31.7,25.8,57.3,57.3,57.3s57.3-25.8,57.3-57.3c0-10.5-2.8-20.5-7.9-28.9h127.7
		c-5.1,8.5-7.9,18.4-7.9,28.9c0,31.7,25.8,57.3,57.3,57.3s57.3-25.8,57.3-57.3s-25.8-57.3-57.3-57.3H104.7
		c-16.4,0-29.7-13.4-29.7-29.7v-38.5C83.7,475.2,93.9,478.1,104.7,478.1z M175.4,595.5c0,16-13,28.9-28.9,28.9s-28.9-13-28.9-28.9
		s13-28.9,28.9-28.9S175.4,579.6,175.4,595.5z M402.1,595.5c0,16-13,28.9-28.9,28.9s-28.9-13-28.9-28.9s13-28.9,28.9-28.9
		S402.1,579.6,402.1,595.5z M386.8,449.7H104.7C88.3,449.7,75,436.3,75,420v-70v-78.3v-5.3l341.5,47v106.4
		C416.5,436.4,403.1,449.7,386.8,449.7z"/>
</g>
</svg>
